<svg width="180" height="339" viewBox="0 0 180 339" fill="none" xmlns="http://www.w3.org/2000/svg">
<rect x="1.25" y="1.25" width="177.5" height="336.5" fill="#257A66" stroke="black" stroke-width="2.5"/>
<path d="M60.0112 78.5055C60.0112 78.5055 60.0118 78.505 60.0132 78.5041C60.0119 78.505 60.0112 78.5055 60.0112 78.5055ZM60.0843 78.4633C60.1241 78.4426 60.1819 78.4149 60.262 78.3819C60.5854 78.2484 61.0933 78.0994 61.8195 77.9538C63.2635 77.6643 65.2955 77.4411 67.8295 77.2857C72.8805 76.9758 79.6665 76.9491 87.1641 77.1033C102.145 77.4113 119.791 78.4368 131.681 79.3032C131.805 79.3123 131.877 79.3263 131.913 79.3359C132.685 79.9811 134.195 81.9284 135.919 86.172C137.642 90.4147 139.504 96.7659 141.058 105.949C143.06 117.783 136.755 129.917 129.261 139.207C125.552 143.805 121.643 147.589 118.543 150.143C116.989 151.424 115.672 152.366 114.713 152.943C114.314 153.182 114.016 153.336 113.813 153.424C113.738 153.408 113.672 153.397 113.618 153.388C113.386 153.349 113.126 153.319 112.857 153.296C112.317 153.25 111.631 153.219 110.837 153.198C109.245 153.156 107.108 153.154 104.604 153.173C101.585 153.197 97.9879 153.253 94.112 153.314C91.5631 153.354 88.8935 153.396 86.1885 153.431C79.3517 153.522 72.2626 153.573 66.1942 153.46C60.0633 153.345 55.1591 153.064 52.5839 152.534C50.3563 152.076 48.1707 150.641 46.1143 148.349C44.0642 146.063 42.2456 143.036 40.7523 139.643C37.752 132.825 36.2237 124.902 36.5701 119.357C36.7292 116.81 37.9602 113.317 39.9614 109.265C41.9351 105.268 44.5503 100.937 47.2717 96.774C49.9894 92.6167 52.7899 88.6623 55.1233 85.4192C55.7043 84.6117 56.2609 83.8422 56.7821 83.1217C58.2401 81.1059 59.4211 79.4731 60.0843 78.4633Z" fill="#E08F61" stroke="black" stroke-width="4" stroke-linecap="round" stroke-linejoin="round"/>
<path d="M61.1642 117.168L71.8647 93.8091L82.0103 94.8113L71.8117 117.074L61.1642 117.168Z" fill="#D35135" stroke="black" stroke-width="4"/>
<path d="M100.951 120.389L111.651 97.0305L121.797 98.0328L111.598 120.296L100.951 120.389Z" fill="#D35135" stroke="black" stroke-width="4"/>
<path d="M78.5778 140.167C79.9371 137.649 81.315 135.045 82.2786 133.215C82.6753 132.461 83.4787 132.059 84.2734 132.179C85.753 132.401 87.6011 132.699 89.2658 133.026C90.0279 133.176 90.6187 133.902 90.5415 134.86L89.9574 142.106C89.8681 143.214 88.8924 144.037 87.7852 143.937L80.2007 143.257C78.754 143.127 77.8584 141.5 78.5778 140.167Z" fill="#D35135" stroke="black" stroke-width="4" stroke-linecap="round" stroke-linejoin="round"/>
<path d="M59.8517 190.521C59.8517 190.521 59.8523 190.521 59.8537 190.52C59.8524 190.521 59.8518 190.521 59.8517 190.521ZM59.9247 190.479C59.9644 190.458 60.0222 190.43 60.1022 190.397C60.4253 190.263 60.9328 190.112 61.6586 189.965C63.1019 189.672 65.1333 189.443 67.6669 189.282C72.7171 188.959 79.503 188.915 87.001 189.05C101.983 189.32 119.631 190.301 131.523 191.137C131.648 191.146 131.719 191.16 131.756 191.17C132.529 191.813 134.044 193.756 135.779 197.996C137.513 202.234 139.391 208.58 140.968 217.759C143 229.589 136.725 241.738 129.255 251.047C125.557 255.654 121.658 259.449 118.565 262.01C117.014 263.295 115.699 264.241 114.741 264.82C114.344 265.06 114.046 265.214 113.843 265.303C113.768 265.288 113.702 265.276 113.648 265.267C113.416 265.229 113.156 265.2 112.887 265.178C112.346 265.133 111.66 265.103 110.867 265.085C109.274 265.047 107.137 265.05 104.633 265.076C101.614 265.107 98.0175 265.173 94.1418 265.243C91.5929 265.29 88.9235 265.338 86.2186 265.381C79.382 265.488 72.2931 265.557 66.2244 265.46C60.0933 265.361 55.1884 265.092 52.6118 264.569C50.3831 264.116 48.1938 262.687 46.1316 260.399C44.0758 258.119 42.2495 255.096 40.7476 251.707C37.7301 244.897 36.1817 236.978 36.5141 231.432C36.6668 228.885 37.8889 225.389 39.8798 221.332C41.8434 217.33 44.4477 212.992 47.1585 208.822C49.8656 204.658 52.6561 200.696 54.9813 197.447C55.5603 196.638 56.1149 195.867 56.6343 195.146C58.0872 193.126 59.2641 191.49 59.9247 190.479Z" fill="#E08F61" stroke="black" stroke-width="4" stroke-linecap="round" stroke-linejoin="round"/>
<path d="M60.0066 230.555L70.6479 207.169L80.796 208.146L70.6539 230.435L60.0066 230.555Z" fill="#D35135" stroke="black" stroke-width="4"/>
<path d="M99.8011 233.676L110.442 210.29L120.59 211.267L110.448 233.555L99.8011 233.676Z" fill="#D35135" stroke="black" stroke-width="4"/>
<path d="M77.478 253.51C78.831 250.989 80.2022 248.382 81.1612 246.548C81.556 245.794 82.3584 245.39 83.1534 245.507C84.6335 245.726 86.4824 246.02 88.1479 246.342C88.9104 246.49 89.503 247.214 89.4282 248.173L88.8625 255.42C88.7759 256.529 87.8023 257.354 86.6949 257.257L79.1087 256.596C77.6617 256.47 76.762 254.845 77.478 253.51Z" fill="#D35135" stroke="black" stroke-width="4" stroke-linecap="round" stroke-linejoin="round"/>
</svg>
