<svg width="128" height="462" viewBox="0 0 128 462" fill="none" xmlns="http://www.w3.org/2000/svg">
<path d="M109.536 341.316C111.14 370.227 101.182 366.413 95 372.436L109.536 389C118.057 385.988 125.075 372.436 126.578 362.397C128.187 351.659 124.908 117.618 121.566 1H105.025C106.696 94.1936 107.932 312.404 109.536 341.316Z" fill="#CE5CF6" stroke="black"/>
<path d="M80.7151 393.026V370.128L91.3461 366.841L122.161 372.231V395.75L114.991 399.888L80.7151 393.026Z" fill="#D35135" stroke="black" stroke-width="1.67727"/>
<path d="M64.8849 394.227L58.3143 369.004L64.2778 365.892L116.281 379.162V409.937L109.685 414.514L64.8849 394.227Z" fill="#D35135" stroke="black" stroke-width="1.67727"/>
<path d="M108.93 414.289L60.4008 397.151L58.7322 370.484L108.93 382.224V414.289Z" fill="#CE5CF6" stroke="black" stroke-width="1.67727"/>
<path d="M101.579 407.036L77.7747 434.309V403.691L101.579 387.184V407.036Z" fill="#D35135" stroke="black" stroke-width="1.67727"/>
<path d="M99.4355 385.678L76.8965 401.784L31.6439 383.671L60.1453 376.643L99.4355 385.678Z" fill="#D35135" stroke="black" stroke-width="1.67727"/>
<path d="M16.5198 420.743V387.254L25.3322 383.066L75.6073 403.042V438.251L63.8015 443.463L16.5198 420.743Z" fill="#D35135" stroke="black" stroke-width="1.67727"/>
<path d="M62.8663 443.182L16.5198 426.044V390.603V388.317L62.8663 407.903V443.182Z" fill="#CE5CF6" stroke="black" stroke-width="1.67727"/>
<path d="M28.6435 419L6.42897 439.324V422.117L28.8609 407.477L28.6435 419Z" fill="#257A66" stroke="black" stroke-width="1.67727"/>
<path d="M26.4262 406.748L5.21449 420.739L1.95439 419.652L22.6008 406.748H26.4262Z" fill="#E08F61" stroke="black" stroke-width="1.67727"/>
<path d="M4.49734 440.515L0.838634 439.993V421.25L4.49734 422.296V440.515Z" fill="#E08F61" stroke="black" stroke-width="1.67727"/>
<mask id="path-12-inside-1" fill="white">
<ellipse cx="10.4176" cy="428.015" rx="1.52456" ry="3.04913" transform="rotate(0.202866 10.4176 428.015)"/>
</mask>
<path d="M10.2649 428.015C10.2626 428.653 10.128 429.147 9.99043 429.42C9.92189 429.556 9.88413 429.575 9.92234 429.543C9.97144 429.501 10.1421 429.386 10.4127 429.387L10.4008 432.742C11.7994 432.747 12.6179 431.66 12.9855 430.931C13.4036 430.102 13.6157 429.073 13.6194 428.027L10.2649 428.015ZM10.4127 429.387C10.6833 429.388 10.8532 429.505 10.902 429.546C10.9399 429.578 10.9023 429.559 10.8348 429.423C10.6991 429.149 10.568 428.654 10.5703 428.016L7.21575 428.004C7.21205 429.05 7.41681 430.081 7.82907 430.912C8.19152 431.644 9.00229 432.737 10.4008 432.742L10.4127 429.387ZM10.5703 428.016C10.5725 427.378 10.7072 426.884 10.8447 426.611C10.9132 426.475 10.951 426.456 10.9128 426.488C10.8637 426.529 10.6931 426.645 10.4224 426.644L10.4343 423.289C9.03575 423.284 8.21727 424.371 7.84965 425.1C7.43151 425.929 7.21946 426.958 7.21575 428.004L10.5703 428.016ZM10.4224 426.644C10.1518 426.643 9.98198 426.526 9.93316 426.485C9.89519 426.452 9.93281 426.472 10.0004 426.608C10.136 426.882 10.2671 427.377 10.2649 428.015L13.6194 428.027C13.6231 426.981 13.4183 425.95 13.0061 425.118C12.6436 424.387 11.8328 423.294 10.4343 423.289L10.4224 426.644Z" fill="black" mask="url(#path-12-inside-1)"/>
<path d="M50.9968 431.995L24.8762 458.976V445.511L50.9968 418.647V431.995Z" fill="#257A66" stroke="black" stroke-width="1.67727"/>
<path d="M49.7129 417.243L23.4127 444.091L19.6381 441.615L45.7695 416.704L49.7129 417.243Z" fill="#E08F61" stroke="black" stroke-width="1.67727"/>
<path d="M22.6906 459.484L19.1336 457.278V443.742L22.6906 445.923V459.484Z" fill="#E08F61" stroke="black" stroke-width="1.67727"/>
<mask id="path-17-inside-2" fill="white">
<ellipse rx="1.67602" ry="3.10154" transform="matrix(0.998844 0.0480626 -0.0479871 0.998848 27.4862 448.981)"/>
</mask>
<path d="M27.4849 448.98C27.4545 449.613 27.2888 450.096 27.1291 450.361C27.0503 450.491 27.0049 450.516 27.0315 450.497C27.0692 450.471 27.207 450.393 27.4178 450.403L27.2569 453.754C28.6277 453.82 29.5396 452.858 30.0003 452.095C30.5004 451.268 30.7838 450.22 30.8356 449.142L27.4849 448.98ZM27.4178 450.403C27.6287 450.413 27.7584 450.504 27.7934 450.534C27.8181 450.555 27.7753 450.526 27.7094 450.389C27.5757 450.11 27.457 449.613 27.4874 448.981L24.1368 448.819C24.085 449.898 24.2666 450.968 24.685 451.84C25.0705 452.643 25.886 453.688 27.2569 453.754L27.4178 450.403ZM27.4874 448.981C27.5178 448.348 27.6836 447.865 27.8433 447.6C27.9221 447.47 27.9675 447.445 27.9409 447.464C27.9032 447.49 27.7654 447.568 27.5545 447.558L27.7155 444.207C26.3447 444.141 25.4327 445.103 24.972 445.866C24.472 446.693 24.1886 447.741 24.1368 448.819L27.4874 448.981ZM27.5545 447.558C27.3437 447.548 27.214 447.457 27.179 447.427C27.1543 447.406 27.1971 447.435 27.263 447.572C27.3967 447.851 27.5153 448.348 27.4849 448.98L30.8356 449.142C30.8874 448.064 30.7057 446.993 30.2873 446.121C29.9019 445.318 29.0863 444.273 27.7155 444.207L27.5545 447.558Z" fill="black" mask="url(#path-17-inside-2)"/>
</svg>
