<svg width="132" height="539" viewBox="0 0 132 539" fill="none" xmlns="http://www.w3.org/2000/svg">
<rect x="0.913265" y="293.73" width="129.684" height="245.983" fill="#257A66" stroke="black" stroke-width="1.82653"/>
<path d="M43.8452 350.204C43.8451 350.204 43.8455 350.204 43.8463 350.203L43.8452 350.204ZM43.8984 350.173C43.9275 350.158 43.9698 350.138 44.0285 350.114C44.2648 350.016 44.6359 349.907 45.1665 349.801C46.2215 349.589 47.706 349.426 49.5574 349.312C53.2478 349.086 58.2057 349.066 63.6835 349.179C74.6288 349.404 87.5207 350.154 96.2077 350.787L96.3135 349.33L96.2077 350.787C96.2989 350.794 96.3512 350.804 96.3776 350.811C96.9414 351.283 98.0449 352.706 99.3043 355.808C100.563 358.91 101.924 363.553 103.059 370.265C104.522 378.917 99.9149 387.787 94.4397 394.578C91.7295 397.939 88.8739 400.705 86.6089 402.572C85.4731 403.508 84.5112 404.197 83.8102 404.619C83.5191 404.794 83.3011 404.906 83.1528 404.971C83.0983 404.959 83.05 404.951 83.0107 404.944C82.8406 404.916 82.6507 404.894 82.4543 404.877C82.0595 404.843 81.5584 404.821 80.9788 404.805C79.8154 404.775 78.254 404.773 76.4246 404.788C74.2189 404.805 71.5908 404.846 68.7591 404.89C66.8968 404.92 64.9463 404.95 62.97 404.976C57.9749 405.042 52.7955 405.08 48.3619 404.997C43.8826 404.913 40.2996 404.707 38.418 404.32C36.7907 403.986 35.1939 402.937 33.6915 401.261C32.1937 399.59 30.8649 397.377 29.7739 394.897C27.5819 389.913 26.4652 384.121 26.7183 380.067C26.8346 378.205 27.734 375.652 29.1961 372.69C30.6382 369.768 32.5489 366.602 34.5373 363.559C36.5228 360.52 38.5689 357.629 40.2737 355.258C40.6982 354.668 41.1049 354.106 41.4857 353.579C42.551 352.105 43.4139 350.912 43.8984 350.173Z" fill="#E08F61" stroke="black" stroke-width="2.92245" stroke-linecap="round" stroke-linejoin="round"/>
<path d="M44.6852 378.467L52.5036 361.391L59.9164 362.124L52.4647 378.399L44.6852 378.467Z" fill="#D35135" stroke="black" stroke-width="2.92245"/>
<path d="M73.7555 380.822L81.5739 363.746L88.9867 364.479L81.535 380.754L73.7555 380.822Z" fill="#D35135" stroke="black" stroke-width="2.92245"/>
<path d="M57.4082 395.281C58.4018 393.439 59.409 391.535 60.1132 390.196C60.4029 389.646 60.9896 389.352 61.5701 389.439C62.6511 389.602 64.0015 389.82 65.218 390.059C65.7747 390.169 66.2065 390.699 66.1501 391.399L65.7231 396.699C65.6579 397.508 64.9454 398.109 64.1368 398.036L58.5942 397.539C57.5373 397.444 56.8828 396.255 57.4082 395.281Z" fill="#D35135" stroke="black" stroke-width="2.92245" stroke-linecap="round" stroke-linejoin="round"/>
<path d="M43.7286 432.088C43.7286 432.088 43.729 432.088 43.7298 432.087L43.7286 432.088ZM43.7818 432.057C43.8108 432.042 43.8531 432.021 43.9117 431.997C44.1478 431.899 44.5186 431.789 45.0489 431.681C46.1034 431.467 47.5875 431.3 49.4386 431.182C53.1284 430.946 58.0862 430.914 63.5643 431.013C74.5102 431.21 87.4039 431.927 96.0925 432.538L96.1945 431.082L96.0925 432.538C96.1837 432.545 96.236 432.555 96.2624 432.562C96.8274 433.032 97.9346 434.453 99.2018 437.552C100.469 440.65 101.841 445.289 102.993 451.999C104.478 460.647 99.8933 469.528 94.4352 476.333C91.7335 479.701 88.885 482.475 86.6247 484.348C85.4913 485.287 84.5312 485.978 83.8312 486.401C83.5406 486.577 83.3228 486.69 83.1747 486.755C83.1202 486.744 83.0718 486.735 83.0325 486.729C82.8624 486.701 82.6724 486.68 82.4759 486.663C82.0811 486.63 81.58 486.609 81.0003 486.595C79.8368 486.567 78.2754 486.57 76.446 486.589C74.2404 486.612 71.6126 486.659 68.781 486.711C66.9187 486.745 64.9683 486.78 62.992 486.811C57.9971 486.89 52.8178 486.941 48.384 486.869C43.9045 486.797 40.3209 486.6 38.4384 486.218C36.8102 485.887 35.2108 484.842 33.7042 483.17C32.2021 481.503 30.8678 479.293 29.7705 476.816C27.5658 471.838 26.4346 466.049 26.6774 461.994C26.789 460.132 27.6819 457.577 29.1365 454.611C30.5712 451.685 32.4739 448.514 34.4545 445.466C36.4324 442.422 38.4712 439.526 40.17 437.151C40.593 436.56 40.9982 435.996 41.3776 435.469C42.4393 433.992 43.2992 432.796 43.7818 432.057Z" fill="#E08F61" stroke="black" stroke-width="2.92245" stroke-linecap="round" stroke-linejoin="round"/>
<path d="M43.8408 461.354L51.616 444.258L59.0306 444.972L51.6201 461.266L43.8408 461.354Z" fill="#D35135" stroke="black" stroke-width="2.92245"/>
<path d="M72.916 463.635L80.6912 446.539L88.1058 447.253L80.6953 463.547L72.916 463.635Z" fill="#D35135" stroke="black" stroke-width="2.92245"/>
<path d="M56.6053 478.134C57.5942 476.29 58.5966 474.384 59.2974 473.043C59.5857 472.492 60.1716 472.197 60.7524 472.283C61.8338 472.443 63.1848 472.657 64.4018 472.893C64.9588 473.001 65.3919 473.53 65.3373 474.231L64.9238 479.531C64.8606 480.341 64.1496 480.944 63.3408 480.873L57.7969 480.39C56.7399 480.297 56.0823 479.11 56.6053 478.134Z" fill="#D35135" stroke="black" stroke-width="2.92245" stroke-linecap="round" stroke-linejoin="round"/>
<path d="M96.1017 249.919C97.2736 271.053 89.9981 268.265 85.4814 272.668L96.1017 284.776C102.327 282.574 107.454 272.668 108.553 265.329C109.728 257.479 107.332 86.3948 104.891 1.14722H92.8057C94.0265 69.2719 94.9298 228.784 96.1017 249.919Z" fill="#CE5CF6" stroke="black" stroke-width="0.730612"/>
<path d="M75.0444 287.719V270.98L82.8115 268.577L105.325 272.517V289.71L100.087 292.735L75.0444 287.719Z" fill="#D35135" stroke="black" stroke-width="1.22543"/>
<path d="M63.4804 288.597L58.6797 270.158L63.0368 267.883L101.031 277.584V300.081L96.2121 303.427L63.4804 288.597Z" fill="#D35135" stroke="black" stroke-width="1.22543"/>
<path d="M95.6605 303.262L60.2044 290.735L58.9852 271.24L95.6605 279.822V303.262Z" fill="#CE5CF6" stroke="black" stroke-width="1.22543"/>
<path d="M90.2889 297.96L72.8969 317.897V295.515L90.2889 283.448V297.96Z" fill="#D35135" stroke="black" stroke-width="1.22543"/>
<path d="M88.7251 282.348L72.2571 294.121L39.1941 280.881L60.0185 275.743L88.7251 282.348Z" fill="#D35135" stroke="black" stroke-width="1.22543"/>
<path d="M28.144 307.98V283.499L34.5824 280.437L71.314 295.04V320.779L62.6886 324.589L28.144 307.98Z" fill="#D35135" stroke="black" stroke-width="1.22543"/>
<path d="M62.0053 324.383L28.144 311.855V285.948V284.276L62.0053 298.594V324.383Z" fill="#CE5CF6" stroke="black" stroke-width="1.22543"/>
<path d="M37.0001 306.707L20.7699 321.564V308.984L37.159 298.283L37.0001 306.707Z" fill="#257A66" stroke="black" stroke-width="1.22543"/>
<path d="M35.3815 297.75L19.883 307.978L17.5005 307.183L32.5857 297.75H35.3815Z" fill="#E08F61" stroke="black" stroke-width="1.22543"/>
<path d="M19.3591 322.434L16.686 322.052V308.351L19.3591 309.115V322.434Z" fill="#E08F61" stroke="black" stroke-width="1.22543"/>
<mask id="path-21-inside-1" fill="white">
<ellipse rx="1.11387" ry="2.22892" transform="matrix(0.999994 0.00354257 -0.00353879 0.999994 23.6851 313.297)"/>
</mask>
<path d="M23.5735 313.296C23.5719 313.763 23.4735 314.124 23.3729 314.324C23.3228 314.423 23.2951 314.437 23.323 314.414C23.3588 314.384 23.4836 314.299 23.6815 314.3L23.6728 316.751C24.695 316.755 25.2929 315.96 25.5613 315.427C25.8668 314.821 26.0217 314.069 26.0244 313.305L23.5735 313.296ZM23.6815 314.3C23.8795 314.301 24.0036 314.386 24.0392 314.416C24.0669 314.44 24.0394 314.426 23.99 314.326C23.8908 314.126 23.795 313.764 23.7966 313.297L21.3458 313.288C21.3431 314.053 21.4926 314.806 21.7938 315.414C22.0584 315.948 22.6507 316.747 23.6728 316.751L23.6815 314.3ZM23.7966 313.297C23.7983 312.83 23.8967 312.469 23.9973 312.269C24.0474 312.17 24.075 312.156 24.0471 312.179C24.0113 312.21 23.8866 312.294 23.6886 312.293L23.6973 309.842C22.6752 309.839 22.0772 310.634 21.8088 311.166C21.5034 311.772 21.3485 312.524 21.3458 313.288L23.7966 313.297ZM23.6886 312.293C23.4907 312.292 23.3665 312.207 23.3309 312.177C23.3032 312.153 23.3307 312.167 23.3802 312.267C23.4793 312.467 23.5752 312.83 23.5735 313.296L26.0244 313.305C26.0271 312.54 25.8775 311.787 25.5764 311.179C25.3117 310.645 24.7194 309.846 23.6973 309.842L23.6886 312.293Z" fill="black" mask="url(#path-21-inside-1)"/>
<path d="M53.3296 316.206L34.2455 335.928V326.085L53.3296 306.447V316.206Z" fill="#257A66" stroke="black" stroke-width="1.22543"/>
<path d="M52.3953 305.421L33.1795 325.048L30.4214 323.237L49.5137 305.028L52.3953 305.421Z" fill="#E08F61" stroke="black" stroke-width="1.22543"/>
<path d="M32.65 336.3L30.0512 334.688V324.793L32.65 326.387V336.3Z" fill="#E08F61" stroke="black" stroke-width="1.22543"/>
<mask id="path-26-inside-2" fill="white">
<ellipse rx="1.22452" ry="2.26723" transform="matrix(0.998843 0.0480882 -0.0479616 0.998849 36.1534 328.622)"/>
</mask>
<path d="M36.1525 328.622C36.1303 329.085 36.0092 329.438 35.8924 329.632C35.8348 329.727 35.8015 329.745 35.8209 329.732C35.8485 329.712 35.9493 329.655 36.1035 329.663L35.9859 332.111C36.9878 332.159 37.654 331.456 37.9905 330.899C38.3557 330.294 38.5627 329.528 38.6006 328.74L36.1525 328.622ZM36.1035 329.663C36.2577 329.67 36.3525 329.736 36.3781 329.758C36.3961 329.774 36.3648 329.752 36.3166 329.652C36.2189 329.448 36.1321 329.085 36.1543 328.622L33.7063 328.504C33.6685 329.292 33.8012 330.074 34.1068 330.712C34.3883 331.299 34.984 332.063 35.9859 332.111L36.1035 329.663ZM36.1543 328.622C36.1766 328.159 36.2977 327.806 36.4145 327.613C36.4721 327.517 36.5053 327.499 36.4859 327.513C36.4584 327.532 36.3576 327.589 36.2034 327.581L36.3209 325.133C35.3191 325.085 34.6528 325.788 34.3164 326.346C33.9512 326.95 33.7441 327.716 33.7063 328.504L36.1543 328.622ZM36.2034 327.581C36.0492 327.574 35.9543 327.508 35.9288 327.486C35.9108 327.47 35.9421 327.492 35.9903 327.592C36.088 327.796 36.1747 328.159 36.1525 328.622L38.6006 328.74C38.6384 327.952 38.5057 327.17 38.2001 326.533C37.9186 325.946 37.3228 325.182 36.3209 325.133L36.2034 327.581Z" fill="black" mask="url(#path-26-inside-2)"/>
</svg>
