<svg width="184" height="737" viewBox="0 0 184 737" fill="none" xmlns="http://www.w3.org/2000/svg">
<g filter="url(#filter0_d)">
<rect x="1.25" y="399.25" width="177.5" height="336.5" fill="#257A66" stroke="black" stroke-width="2.5"/>
<path d="M60.0107 476.505C60.0107 476.505 60.0114 476.505 60.0127 476.504C60.0114 476.505 60.0108 476.505 60.0107 476.505ZM60.0838 476.463C60.1236 476.443 60.1814 476.415 60.2616 476.382C60.5849 476.248 61.0928 476.099 61.819 475.954C63.2631 475.664 65.295 475.441 67.829 475.286C72.8801 474.976 79.666 474.949 87.1636 475.103C102.145 475.411 119.79 476.437 131.68 477.303C131.805 477.312 131.877 477.326 131.913 477.336C132.684 477.981 134.195 479.928 135.919 484.172C137.642 488.415 139.504 494.766 141.058 503.949C143.06 515.783 136.755 527.917 129.261 537.207C125.551 541.805 121.643 545.589 118.543 548.143C116.988 549.424 115.672 550.366 114.712 550.943C114.314 551.182 114.015 551.336 113.813 551.424C113.738 551.408 113.672 551.397 113.618 551.388C113.385 551.349 113.125 551.319 112.856 551.296C112.316 551.25 111.63 551.219 110.837 551.198C109.245 551.156 107.107 551.154 104.604 551.173C101.585 551.197 97.9874 551.253 94.1115 551.314C91.5626 551.354 88.893 551.396 86.188 551.431C79.3512 551.522 72.2621 551.573 66.1937 551.46C60.0629 551.345 55.1587 551.064 52.5834 550.534C50.3558 550.076 48.1702 548.641 46.1138 546.349C44.0637 544.063 42.2451 541.036 40.7518 537.643C37.7515 530.825 36.2232 522.902 36.5697 517.357C36.7287 514.81 37.9597 511.317 39.9609 507.265C41.9346 503.268 44.5498 498.937 47.2713 494.774C49.9889 490.617 52.7894 486.662 55.1228 483.419C55.7038 482.612 56.2604 481.842 56.7816 481.122C58.2396 479.106 59.4206 477.473 60.0838 476.463Z" fill="#E08F61" stroke="black" stroke-width="4" stroke-linecap="round" stroke-linejoin="round"/>
<path d="M61.1637 515.168L71.8642 491.809L82.0098 492.811L71.8112 515.074L61.1637 515.168Z" fill="#D35135" stroke="black" stroke-width="4"/>
<path d="M100.95 518.389L111.651 495.031L121.796 496.033L111.598 518.296L100.95 518.389Z" fill="#D35135" stroke="black" stroke-width="4"/>
<path d="M78.5773 538.167C79.9367 535.649 81.3145 533.045 82.2781 531.215C82.6748 530.461 83.4782 530.059 84.2729 530.179C85.7525 530.401 87.6006 530.699 89.2653 531.026C90.0274 531.176 90.6182 531.902 90.541 532.86L89.9569 540.106C89.8676 541.214 88.8919 542.037 87.7847 541.937L80.2002 541.257C78.7535 541.127 77.8579 539.5 78.5773 538.167Z" fill="#D35135" stroke="black" stroke-width="4" stroke-linecap="round" stroke-linejoin="round"/>
<path d="M59.8522 588.521C59.8522 588.521 59.8528 588.521 59.8542 588.52C59.8529 588.521 59.8522 588.521 59.8522 588.521ZM59.9252 588.479C59.9649 588.458 60.0227 588.43 60.1027 588.397C60.4257 588.263 60.9333 588.112 61.6591 587.965C63.1024 587.672 65.1338 587.443 67.6674 587.282C72.7176 586.959 79.5035 586.915 87.0015 587.05C101.983 587.32 119.631 588.301 131.523 589.137C131.648 589.146 131.72 589.16 131.756 589.17C132.529 589.813 134.045 591.756 135.779 595.996C137.513 600.234 139.391 606.58 140.968 615.759C143.001 627.589 136.726 639.738 129.255 649.047C125.558 653.654 121.659 657.449 118.565 660.01C117.014 661.295 115.7 662.241 114.742 662.82C114.344 663.06 114.046 663.214 113.844 663.303C113.769 663.288 113.703 663.276 113.649 663.267C113.416 663.229 113.156 663.2 112.887 663.178C112.347 663.133 111.661 663.103 110.867 663.085C109.275 663.047 107.138 663.05 104.634 663.076C101.615 663.107 98.018 663.173 94.1423 663.243C91.5934 663.29 88.924 663.338 86.2191 663.381C79.3825 663.488 72.2936 663.557 66.2249 663.46C60.0938 663.361 55.1889 663.092 52.6123 662.569C50.3835 662.116 48.1943 660.687 46.1321 658.399C44.0763 656.119 42.25 653.096 40.7481 649.707C37.7305 642.897 36.1822 634.978 36.5146 629.432C36.6673 626.885 37.8894 623.389 39.8803 619.332C41.8439 615.33 44.4481 610.992 47.159 606.822C49.8661 602.658 52.6566 598.696 54.9818 595.447C55.5608 594.638 56.1154 593.867 56.6348 593.146C58.0877 591.126 59.2645 589.49 59.9252 588.479Z" fill="#E08F61" stroke="black" stroke-width="4" stroke-linecap="round" stroke-linejoin="round"/>
<path d="M60.0071 628.555L70.6484 605.169L80.7965 606.146L70.6544 628.435L60.0071 628.555Z" fill="#D35135" stroke="black" stroke-width="4"/>
<path d="M99.8016 631.676L110.443 608.29L120.591 609.267L110.449 631.555L99.8016 631.676Z" fill="#D35135" stroke="black" stroke-width="4"/>
<path d="M77.4785 651.51C78.8314 648.989 80.2027 646.382 81.1616 644.548C81.5565 643.794 82.3588 643.39 83.1538 643.507C84.634 643.726 86.4829 644.02 88.1484 644.342C88.9108 644.49 89.5035 645.214 89.4287 646.173L88.8629 653.42C88.7764 654.529 87.8028 655.354 86.6954 655.257L79.1092 654.596C77.6622 654.47 76.7625 652.845 77.4785 651.51Z" fill="#D35135" stroke="black" stroke-width="4" stroke-linecap="round" stroke-linejoin="round"/>
</g>
<rect x="46.6866" y="487.552" width="90.6269" height="49.4328" fill="#D35135" stroke="black" stroke-width="1.37313"/>
<rect x="59.8222" y="497.822" width="64.132" height="27.955" fill="#CE5CF6" stroke="black" stroke-width="1.64441"/>
<path d="M66.0602 480L46 486.866H138L118.632 480H66.0602Z" fill="#D35135" stroke="black" stroke-width="1.37313"/>
<path d="M86.7909 470.159C83.7528 509.564 68.7786 490.237 71.2805 515H112.308C116.311 494.922 101.542 502.284 103.802 482.206C105.412 467.906 106.212 156.293 102.868 1H86.3155C87.9875 125.101 89.7482 431.802 86.7909 470.159Z" fill="#CE5CF6" stroke="black"/>
<rect x="70" y="514" width="43" height="2" fill="#CE5CF6"/>
<defs>
<filter id="filter0_d" x="-4" y="398" width="188" height="347" filterUnits="userSpaceOnUse" color-interpolation-filters="sRGB">
<feFlood flood-opacity="0" result="BackgroundImageFix"/>
<feColorMatrix in="SourceAlpha" type="matrix" values="0 0 0 0 0 0 0 0 0 0 0 0 0 0 0 0 0 0 127 0"/>
<feOffset dy="4"/>
<feGaussianBlur stdDeviation="2"/>
<feColorMatrix type="matrix" values="0 0 0 0 0 0 0 0 0 0 0 0 0 0 0 0 0 0 0.25 0"/>
<feBlend mode="normal" in2="BackgroundImageFix" result="effect1_dropShadow"/>
<feBlend mode="normal" in="SourceGraphic" in2="effect1_dropShadow" result="shape"/>
</filter>
</defs>
</svg>
