<svg width="395" height="173" viewBox="0 0 395 173" fill="none" xmlns="http://www.w3.org/2000/svg">
<rect x="1.25424" y="1.25424" width="392.492" height="170.492" fill="white" stroke="black" stroke-width="2.50847"/>
<g clip-path="url(#clip0)">
<path d="M208.818 80.244L238.346 50.6704V74.8902H249.8V30.2748H206.527V43.022H229.564L200.673 71.9583L208.818 80.244Z" fill="#121212"/>
<path d="M188.582 67.3694C190.236 63.8001 191 59.5935 191 54.3672C191 49.1408 190.236 44.9342 188.582 41.365C185.018 33.4617 177.127 29.0001 165.545 29.0001H144.8V79.6067H165.673C177.127 79.6067 184.891 75.1452 188.582 67.3694ZM155.745 70.5562V38.0507H163.763C171.018 38.0507 175.473 40.4726 177.509 45.1891C178.654 47.6111 179.163 50.4155 179.163 54.2397C179.163 58.1913 178.654 60.9957 177.509 63.2902C175.473 67.8792 171.145 70.4287 163.763 70.4287H155.745V70.5562Z" fill="#121212"/>
<path d="M176.745 132.635C174.455 134.547 171.4 135.694 167.455 135.694C161.727 135.694 157.655 133.4 155.491 128.938C154.218 126.261 153.836 122.947 153.836 118.486C153.836 113.897 154.345 110.71 155.491 108.033C157.527 103.699 161.473 101.277 167.455 101.277C171.4 101.277 174.327 102.297 176.618 104.209C178.655 106.121 179.927 108.67 180.055 111.985H191.636C191.382 106.121 189.218 101.149 185.018 97.5802C180.818 93.8835 174.836 91.7164 167.709 91.7164C156.255 91.7164 148.364 96.5604 144.545 104.719C142.891 108.67 142 113.132 142 118.358C142 123.712 142.764 128.174 144.673 131.998C148.491 140.283 156.509 145 167.964 145C175.091 145 181.327 142.96 185.527 139.136C189.345 135.822 191.764 130.85 191.891 125.114H180.182C180.055 128.301 178.782 130.851 176.745 132.635Z" fill="#121212"/>
<path d="M251.2 104.591C247.509 96.6881 239.618 91.8441 228.164 91.8441C216.709 91.8441 208.818 96.6881 205 104.719C203.218 108.67 202.327 113.387 202.327 118.486C202.327 123.712 203.218 128.429 205.127 132.253C208.945 140.284 216.709 145 228.164 145C239.618 145 247.382 140.284 251.2 132.253C253.109 128.429 254 123.585 254 118.358C254 113.132 253.109 108.543 251.2 104.591ZM240.509 128.429C238.473 132.763 234.654 135.44 228.291 135.44C221.927 135.44 217.982 132.763 215.945 128.429C214.673 125.624 214.164 122.565 214.164 118.358C214.164 114.152 214.673 111.092 215.945 108.288C217.982 103.954 221.927 101.277 228.164 101.277C234.527 101.277 238.473 103.954 240.509 108.288C241.909 111.092 242.291 114.152 242.291 118.358C242.291 122.565 241.782 125.752 240.509 128.429Z" fill="#121212"/>
</g>
<defs>
<clipPath id="clip0">
<rect width="112" height="116" fill="white" transform="translate(142 29)"/>
</clipPath>
</defs>
</svg>
