<svg width="345" height="47" viewBox="0 0 345 47" fill="none" xmlns="http://www.w3.org/2000/svg">
<rect x="0.5" y="0.5" width="344" height="46" fill="#FCFCFC" stroke="black"/>
<path d="M30.26 32H32.34L25.86 17.8H23.88L17.4 32H19.46L21.04 28.32H28.7L30.26 32ZM21.74 26.68L23.86 21.72C24.34 20.82 24.6 20.28 24.84 19.52H24.88C25.12 20.28 25.4 20.82 25.88 21.72L28 26.68H21.74ZM32.4567 23.44H34.8567V28.7C34.8567 30.6 35.4567 32.2 38.2767 32.2C39.0367 32.2 39.7367 32.1 40.2167 31.94V30.36C39.7167 30.48 39.2167 30.56 38.6167 30.56C37.2767 30.56 36.6367 29.98 36.6367 28.6V23.44H40.1967V22H36.6367V18.64L34.8567 19.38V22H32.4567V23.44ZM46.9044 32.3C48.8444 32.3 50.4444 31.34 51.0844 29.76V32H52.8044V22H51.0244V26.98C51.0244 28.94 49.8244 30.8 47.2444 30.8C45.7244 30.8 44.3244 30.02 44.3244 27.66V22H42.5444V27.84C42.5444 30.72 43.8844 32.3 46.9044 32.3ZM55.0348 23.44H57.4348V28.7C57.4348 30.6 58.0348 32.2 60.8548 32.2C61.6148 32.2 62.3148 32.1 62.7948 31.94V30.36C62.2948 30.48 61.7948 30.56 61.1948 30.56C59.8548 30.56 59.2148 29.98 59.2148 28.6V23.44H62.7748V22H59.2148V18.64L57.4348 19.38V22H55.0348V23.44ZM69.4825 32.3C71.4225 32.3 73.0225 31.34 73.6625 29.76V32H75.3825V22H73.6025V26.98C73.6025 28.94 72.4025 30.8 69.8225 30.8C68.3025 30.8 66.9025 30.02 66.9025 27.66V22H65.1225V27.84C65.1225 30.72 66.4625 32.3 69.4825 32.3Z" fill="black"/>
<path d="M304 23.6735H326.506M326.506 23.6735L319.837 16M326.506 23.6735L319.837 31.3469" stroke="black"/>
</svg>
