<svg width="345" height="47" viewBox="0 0 345 47" fill="none" xmlns="http://www.w3.org/2000/svg">
<rect x="0.5" y="0.5" width="344" height="46" stroke="black"/>
<path d="M21.1 32V17.8H19.14V32H21.1ZM25.1705 32H26.9305V27.08C26.9305 24.7 28.3905 23.22 30.6705 23.22C32.7905 23.22 33.8505 24.34 33.8505 26.58V32H35.6105V26.32C35.6105 23.28 34.0905 21.68 31.2305 21.68C29.1505 21.68 27.6905 22.52 26.8705 24.18V22H25.1705V32ZM43.5558 32.3C46.6958 32.3 48.1958 31.06 48.1958 29.12C48.1958 27.5 47.3158 26.5 45.0958 26.3L42.1158 26.08C40.8358 25.96 40.1958 25.48 40.1958 24.66C40.1958 23.66 41.2158 23.1 42.9358 23.1C44.8958 23.1 45.9958 23.86 46.5158 25.14L48.1758 24.58C47.6358 22.82 45.7958 21.7 43.0358 21.7C40.1958 21.7 38.4758 22.84 38.4758 24.72C38.4758 26.34 39.5358 27.38 41.6958 27.58L44.6358 27.8C45.9558 27.9 46.4558 28.32 46.4558 29.26C46.4558 30.32 45.4958 30.86 43.6958 30.86C41.5758 30.86 40.2358 30.02 39.6958 28.52L38.0358 29.06C38.7758 31.14 40.5958 32.3 43.5558 32.3ZM49.2536 23.44H51.6536V28.7C51.6536 30.6 52.2536 32.2 55.0736 32.2C55.8336 32.2 56.5336 32.1 57.0136 31.94V30.36C56.5136 30.48 56.0136 30.56 55.4136 30.56C54.0736 30.56 53.4336 29.98 53.4336 28.6V23.44H56.9936V22H53.4336V18.64L51.6536 19.38V22H49.2536V23.44ZM62.5873 32.3C64.9473 32.3 66.5273 31.5 67.2873 30.06C67.3073 30.76 67.3473 31.44 67.4473 32H69.2873C69.0673 31.1 68.9873 30.22 68.9873 28.52V25.88C68.9873 23.04 67.3873 21.7 64.1073 21.7C61.0873 21.7 59.0873 23.12 58.8673 25.22H60.7873C60.9673 23.86 62.1673 23.12 64.1073 23.12C66.1473 23.12 67.2073 23.94 67.2073 25.68V25.86L63.4873 26.14C61.4673 26.32 60.5073 26.62 59.7673 27.06C58.9673 27.56 58.5273 28.38 58.5273 29.34C58.5273 31.16 60.1273 32.3 62.5873 32.3ZM63.0673 30.9C61.3673 30.9 60.4073 30.32 60.4073 29.3C60.4073 28.24 61.1073 27.72 63.1673 27.5L67.2273 27.12V27.62C67.2273 29.62 65.5273 30.9 63.0673 30.9ZM81.8575 21.88C82.1775 21.88 82.4375 21.9 82.6575 21.96V20.44C82.3775 20.38 82.1775 20.36 81.9375 20.36C80.4975 20.36 79.6175 21.1 79.3375 22.2C78.6375 21.88 77.7775 21.7 76.7575 21.7C73.8775 21.7 72.1375 23.1 72.1375 25.16C72.1375 26.18 72.5775 27.06 73.3775 27.66C72.3575 28 71.6975 28.68 71.6975 29.68C71.6975 30.42 72.0775 31.04 72.8975 31.38C71.7775 31.72 71.2175 32.48 71.2175 33.44C71.2175 35.06 72.6775 36.2 76.6775 36.2C80.7375 36.2 82.5175 35 82.5175 32.96C82.5175 31.16 81.3175 30.18 78.9575 30.18H75.0175C73.7975 30.18 73.3175 29.78 73.3175 29.18C73.3175 28.7 73.6775 28.36 74.2375 28.16C74.9375 28.48 75.7775 28.64 76.7575 28.64C79.6175 28.64 81.3575 27.2 81.3575 25.16C81.3575 24.18 80.9575 23.34 80.2375 22.74C80.4775 22.18 81.0375 21.88 81.8575 21.88ZM76.7575 27.34C74.9775 27.34 73.8775 26.44 73.8775 25.16C73.8775 23.84 74.9775 23.02 76.7575 23.02C78.5375 23.02 79.6375 23.86 79.6375 25.16C79.6375 26.46 78.5375 27.34 76.7575 27.34ZM78.6175 31.72C80.0975 31.72 80.7775 32.16 80.7775 33.08C80.7775 34.12 79.7575 34.78 76.7775 34.78C74.3175 34.78 72.8975 34.34 72.8975 33.14C72.8975 32.52 73.2575 31.98 74.0175 31.66C74.2975 31.7 74.6175 31.72 74.9575 31.72H78.6175ZM86.3808 24.54V22H84.7408V32H86.5008V27.94C86.5008 26.64 86.6408 25.34 87.5408 24.42C88.1008 23.82 88.8808 23.46 90.1408 23.46C90.3808 23.46 90.5608 23.48 90.7608 23.5V21.78C90.5208 21.74 90.2808 21.72 90.0008 21.72C88.2208 21.72 86.9008 22.92 86.3808 24.54ZM95.8881 32.3C98.2481 32.3 99.8281 31.5 100.588 30.06C100.608 30.76 100.648 31.44 100.748 32H102.588C102.368 31.1 102.288 30.22 102.288 28.52V25.88C102.288 23.04 100.688 21.7 97.4081 21.7C94.3881 21.7 92.3881 23.12 92.1681 25.22H94.0881C94.2681 23.86 95.4681 23.12 97.4081 23.12C99.4481 23.12 100.508 23.94 100.508 25.68V25.86L96.7881 26.14C94.7681 26.32 93.8081 26.62 93.0681 27.06C92.2681 27.56 91.8281 28.38 91.8281 29.34C91.8281 31.16 93.4281 32.3 95.8881 32.3ZM96.3681 30.9C94.6681 30.9 93.7081 30.32 93.7081 29.3C93.7081 28.24 94.4081 27.72 96.4681 27.5L100.528 27.12V27.62C100.528 29.62 98.8281 30.9 96.3681 30.9ZM105.835 22V32H107.595V26.64C107.595 24.56 108.815 23.22 110.695 23.22C112.395 23.22 113.295 24.26 113.295 26.18V32H115.075V26.5C115.075 24.46 116.255 23.22 118.155 23.22C119.875 23.22 120.775 24.24 120.775 26.18V32H122.535V26.04C122.535 23.22 121.155 21.68 118.655 21.68C116.895 21.68 115.555 22.5 114.795 24.04C114.255 22.5 112.975 21.68 111.175 21.68C109.415 21.68 108.175 22.46 107.535 24V22H105.835Z" fill="black"/>
<path d="M304 23.6735H326.506M326.506 23.6735L319.837 16M326.506 23.6735L319.837 31.3469" stroke="black"/>
</svg>
