<svg width="345" height="47" viewBox="0 0 345 47" fill="none" xmlns="http://www.w3.org/2000/svg">
<rect x="0.5" y="0.5" width="344" height="46" stroke="black"/>
<path d="M21.56 32H23.98L27.42 20.92C27.52 20.62 27.6 20.32 27.6 20.1H27.7C27.7 20.32 27.78 20.62 27.9 20.92L31.32 32H33.74L37.82 17.8H35.78L32.74 29.22C32.64 29.58 32.56 29.84 32.52 30.1H32.48C32.44 29.86 32.36 29.58 32.24 29.22L28.64 17.8H26.66L23.06 29.22C22.96 29.58 22.86 29.86 22.84 30.1H22.78C22.74 29.84 22.66 29.58 22.58 29.22L19.54 17.8H17.5L21.56 32ZM49.3488 26.52C49.3488 23.42 47.2888 21.7 43.8888 21.7C40.5088 21.7 38.3088 23.66 38.3088 27.12C38.3088 30.42 40.4688 32.3 43.9688 32.3C46.5088 32.3 48.2688 31.34 49.2287 29.48L47.7487 28.8C47.0888 30.1 45.8288 30.78 44.0488 30.78C41.6288 30.78 40.1688 29.52 40.1087 27.52H49.3488V26.52ZM47.5288 26.14H40.1087C40.2088 24.24 41.6488 23.04 43.8688 23.04C45.9888 23.04 47.5088 24.08 47.5288 26V26.14ZM58.3403 32.3C61.4203 32.3 63.5403 30.12 63.5403 27C63.5403 23.86 61.5403 21.7 58.4403 21.7C56.4603 21.7 54.8603 22.58 54.1203 23.88V17.5H52.3603V32H53.8003L54.0603 30.18C54.7803 31.42 56.2203 32.3 58.3403 32.3ZM57.8403 30.76C55.5603 30.76 54.0803 29.36 54.0803 27.26V26.76C54.0803 24.62 55.6203 23.24 57.9203 23.24C60.3003 23.24 61.6803 24.7 61.6803 27C61.6803 29.3 60.2003 30.76 57.8403 30.76ZM70.7823 32.3C73.9223 32.3 75.4223 31.06 75.4223 29.12C75.4223 27.5 74.5423 26.5 72.3223 26.3L69.3423 26.08C68.0623 25.96 67.4223 25.48 67.4223 24.66C67.4223 23.66 68.4423 23.1 70.1623 23.1C72.1223 23.1 73.2223 23.86 73.7423 25.14L75.4023 24.58C74.8623 22.82 73.0223 21.7 70.2623 21.7C67.4223 21.7 65.7023 22.84 65.7023 24.72C65.7023 26.34 66.7623 27.38 68.9223 27.58L71.8623 27.8C73.1823 27.9 73.6823 28.32 73.6823 29.26C73.6823 30.32 72.7223 30.86 70.9223 30.86C68.8023 30.86 67.4623 30.02 66.9223 28.52L65.2623 29.06C66.0023 31.14 67.8223 32.3 70.7823 32.3ZM78.2136 20.16H80.2736V17.94H78.2136V20.16ZM78.3736 32H80.1336V22H78.3736V32ZM82.3981 23.44H84.7981V28.7C84.7981 30.6 85.3981 32.2 88.2181 32.2C88.9781 32.2 89.6781 32.1 90.1581 31.94V30.36C89.6581 30.48 89.1581 30.56 88.5581 30.56C87.2181 30.56 86.5781 29.98 86.5781 28.6V23.44H90.1381V22H86.5781V18.64L84.7981 19.38V22H82.3981V23.44ZM102.435 26.52C102.435 23.42 100.375 21.7 96.9747 21.7C93.5947 21.7 91.3947 23.66 91.3947 27.12C91.3947 30.42 93.5547 32.3 97.0547 32.3C99.5947 32.3 101.355 31.34 102.315 29.48L100.835 28.8C100.175 30.1 98.9147 30.78 97.1347 30.78C94.7147 30.78 93.2547 29.52 93.1947 27.52H102.435V26.52ZM100.615 26.14H93.1947C93.2947 24.24 94.7347 23.04 96.9547 23.04C99.0747 23.04 100.595 24.08 100.615 26V26.14Z" fill="black"/>
<path d="M304 23.6735H326.506M326.506 23.6735L319.837 16M326.506 23.6735L319.837 31.3469" stroke="black"/>
</svg>
