<svg width="345" height="47" viewBox="0 0 345 47" fill="none" xmlns="http://www.w3.org/2000/svg">
<rect x="0.5" y="0.5" width="344" height="46" fill="#FCFCFC" stroke="black"/>
<path d="M32.14 17.8H30.18V23.92H21.1V17.8H19.14V32H21.1V25.56H30.18V32H32.14V17.8ZM40.8452 32.3C44.2652 32.3 46.5452 30.24 46.5452 27C46.5452 23.76 44.2652 21.7 40.8452 21.7C37.4252 21.7 35.1252 23.76 35.1252 27C35.1252 30.24 37.4252 32.3 40.8452 32.3ZM40.8452 30.78C38.4852 30.78 37.0052 29.42 37.0052 27C37.0052 24.58 38.4852 23.22 40.8452 23.22C43.2052 23.22 44.6852 24.58 44.6852 27C44.6852 29.42 43.2052 30.78 40.8452 30.78ZM53.3302 32.3C55.2702 32.3 56.8702 31.34 57.5102 29.76V32H59.2302V22H57.4502V26.98C57.4502 28.94 56.2502 30.8 53.6702 30.8C52.1502 30.8 50.7502 30.02 50.7502 27.66V22H48.9702V27.84C48.9702 30.72 50.3102 32.3 53.3302 32.3ZM67.5206 32.3C70.6606 32.3 72.1606 31.06 72.1606 29.12C72.1606 27.5 71.2806 26.5 69.0606 26.3L66.0806 26.08C64.8006 25.96 64.1606 25.48 64.1606 24.66C64.1606 23.66 65.1806 23.1 66.9006 23.1C68.8606 23.1 69.9606 23.86 70.4806 25.14L72.1406 24.58C71.6006 22.82 69.7606 21.7 67.0006 21.7C64.1606 21.7 62.4406 22.84 62.4406 24.72C62.4406 26.34 63.5006 27.38 65.6606 27.58L68.6006 27.8C69.9206 27.9 70.4206 28.32 70.4206 29.26C70.4206 30.32 69.4606 30.86 67.6606 30.86C65.5406 30.86 64.2006 30.02 63.6606 28.52L62.0006 29.06C62.7406 31.14 64.5606 32.3 67.5206 32.3ZM85.0519 26.52C85.0519 23.42 82.9919 21.7 79.5919 21.7C76.2119 21.7 74.0119 23.66 74.0119 27.12C74.0119 30.42 76.1719 32.3 79.6719 32.3C82.2119 32.3 83.9719 31.34 84.9319 29.48L83.4519 28.8C82.7919 30.1 81.5319 30.78 79.7519 30.78C77.3319 30.78 75.8719 29.52 75.8119 27.52H85.0519V26.52ZM83.2319 26.14H75.8119C75.9119 24.24 77.3519 23.04 79.5719 23.04C81.6919 23.04 83.2119 24.08 83.2319 26V26.14ZM88.1634 32H89.9634V20.9C89.9634 20.28 89.9234 19.82 89.8834 19.46H89.9834C90.0434 19.76 90.2234 20.46 90.4034 20.88L95.1034 32H97.0034L101.723 20.9C101.943 20.42 102.143 19.7 102.223 19.46H102.303C102.243 19.82 102.243 20.36 102.243 20.9V32H104.043V17.8H101.123L96.4834 28.8C96.2834 29.36 96.1834 29.6 96.0834 30.04H96.0434C95.9634 29.6 95.8634 29.36 95.6434 28.8L91.0634 17.8H88.1634V32ZM112.72 32.3C116.14 32.3 118.42 30.24 118.42 27C118.42 23.76 116.14 21.7 112.72 21.7C109.3 21.7 107 23.76 107 27C107 30.24 109.3 32.3 112.72 32.3ZM112.72 30.78C110.36 30.78 108.88 29.42 108.88 27C108.88 24.58 110.36 23.22 112.72 23.22C115.08 23.22 116.56 24.58 116.56 27C116.56 29.42 115.08 30.78 112.72 30.78ZM121.225 32H122.985V27.08C122.985 24.7 124.445 23.22 126.725 23.22C128.845 23.22 129.905 24.34 129.905 26.58V32H131.665V26.32C131.665 23.28 130.145 21.68 127.285 21.68C125.205 21.68 123.745 22.52 122.925 24.18V22H121.225V32ZM145.189 26.52C145.189 23.42 143.129 21.7 139.729 21.7C136.349 21.7 134.149 23.66 134.149 27.12C134.149 30.42 136.309 32.3 139.809 32.3C142.349 32.3 144.109 31.34 145.069 29.48L143.589 28.8C142.929 30.1 141.669 30.78 139.889 30.78C137.469 30.78 136.009 29.52 135.949 27.52H145.189V26.52ZM143.369 26.14H135.949C136.049 24.24 137.489 23.04 139.709 23.04C141.829 23.04 143.349 24.08 143.369 26V26.14ZM147.808 36.06C149.868 36.06 151.308 35.16 152.448 32.64L157.328 22H155.368L152.128 29.34C151.988 29.72 151.888 30.04 151.808 30.28H151.788C151.728 30.04 151.628 29.72 151.468 29.34L148.008 22H145.968L150.908 31.94L150.688 32.48C150.168 33.78 149.208 34.48 147.628 34.48C147.368 34.48 147.088 34.46 146.768 34.42V35.98C147.128 36.04 147.488 36.06 147.808 36.06Z" fill="black"/>
<path d="M304 23.6735H326.506M326.506 23.6735L319.837 16M326.506 23.6735L319.837 31.3469" stroke="black"/>
</svg>
