<svg width="345" height="47" viewBox="0 0 345 47" fill="none" xmlns="http://www.w3.org/2000/svg">
<rect x="0.5" y="0.5" width="344" height="46" stroke="black"/>
<path d="M19.14 32H29.46V30.32H21.1V17.8H19.14V32ZM31.7683 20.16H33.8283V17.94H31.7683V20.16ZM31.9283 32H33.6883V22H31.9283V32ZM37.5728 32H39.3328V27.08C39.3328 24.7 40.7928 23.22 43.0728 23.22C45.1928 23.22 46.2528 24.34 46.2528 26.58V32H48.0128V26.32C48.0128 23.28 46.4928 21.68 43.6328 21.68C41.5528 21.68 40.0928 22.52 39.2728 24.18V22H37.5728V32ZM59.7381 32H61.9381L57.4581 25.7L61.6581 22H59.2181L53.3781 27.02V17.5H51.6181V32H53.3781V28.96L56.0981 26.82L59.7381 32ZM73.7433 26.52C73.7433 23.42 71.6833 21.7 68.2833 21.7C64.9033 21.7 62.7033 23.66 62.7033 27.12C62.7033 30.42 64.8633 32.3 68.3633 32.3C70.9033 32.3 72.6633 31.34 73.6233 29.48L72.1433 28.8C71.4833 30.1 70.2233 30.78 68.4433 30.78C66.0233 30.78 64.5633 29.52 64.5033 27.52H73.7433V26.52ZM71.9233 26.14H64.5033C64.6033 24.24 66.0433 23.04 68.2633 23.04C70.3833 23.04 71.9033 24.08 71.9233 26V26.14ZM80.9297 32.3C82.9697 32.3 84.4297 31.52 85.2697 30.06V32H86.9697V17.5H85.2097V23.68C84.2897 22.34 82.9297 21.7 81.0897 21.7C77.9497 21.7 75.7897 23.88 75.7897 27C75.7897 30.14 77.9097 32.3 80.9297 32.3ZM81.4097 30.76C79.0897 30.76 77.6497 29.34 77.6497 27C77.6497 24.64 79.0497 23.22 81.3297 23.22C83.6697 23.22 85.2497 24.64 85.2497 26.8V27.26C85.2497 29.36 83.6897 30.76 81.4097 30.76ZM93.1117 32V17.8H91.1517V32H93.1117ZM97.1822 32H98.9422V27.08C98.9422 24.7 100.402 23.22 102.682 23.22C104.802 23.22 105.862 24.34 105.862 26.58V32H107.622V26.32C107.622 23.28 106.102 21.68 103.242 21.68C101.162 21.68 99.7022 22.52 98.8822 24.18V22H97.1822V32Z" fill="black"/>
<path d="M304 23.6735H326.506M326.506 23.6735L319.837 16M326.506 23.6735L319.837 31.3469" stroke="black"/>
</svg>
