<svg width="132" height="538" viewBox="0 0 132 538" fill="none" xmlns="http://www.w3.org/2000/svg">
<rect x="0.913265" y="292.73" width="129.684" height="245.983" fill="#257A66" stroke="black" stroke-width="1.82653"/>
<path d="M43.8452 349.204C43.8451 349.204 43.8455 349.204 43.8463 349.203L43.8452 349.204ZM43.8984 349.173C43.9275 349.158 43.9698 349.138 44.0285 349.114C44.2648 349.016 44.6359 348.907 45.1665 348.801C46.2215 348.589 47.706 348.426 49.5574 348.312C53.2478 348.086 58.2057 348.066 63.6835 348.179C74.6288 348.404 87.5207 349.154 96.2077 349.787L96.3135 348.33L96.2077 349.787C96.2989 349.794 96.3512 349.804 96.3776 349.811C96.9414 350.283 98.0449 351.706 99.3043 354.808C100.563 357.91 101.924 362.553 103.059 369.265C104.522 377.917 99.9149 386.787 94.4397 393.578C91.7295 396.939 88.8739 399.705 86.6089 401.572C85.4731 402.508 84.5112 403.197 83.8102 403.619C83.5191 403.794 83.3011 403.906 83.1528 403.971C83.0983 403.959 83.05 403.951 83.0107 403.944C82.8406 403.916 82.6507 403.894 82.4543 403.877C82.0595 403.843 81.5584 403.821 80.9788 403.805C79.8154 403.775 78.254 403.773 76.4246 403.788C74.2189 403.805 71.5908 403.846 68.7591 403.89C66.8968 403.92 64.9463 403.95 62.97 403.976C57.9749 404.042 52.7955 404.08 48.3619 403.997C43.8826 403.913 40.2996 403.707 38.418 403.32C36.7907 402.986 35.1939 401.937 33.6915 400.261C32.1937 398.59 30.8649 396.377 29.7739 393.897C27.5819 388.913 26.4652 383.121 26.7183 379.067C26.8346 377.205 27.734 374.652 29.1961 371.69C30.6382 368.768 32.5489 365.602 34.5373 362.559C36.5228 359.52 38.5689 356.629 40.2737 354.258C40.6982 353.668 41.1049 353.106 41.4857 352.579C42.551 351.105 43.4139 349.912 43.8984 349.173Z" fill="#E08F61" stroke="black" stroke-width="2.92245" stroke-linecap="round" stroke-linejoin="round"/>
<path d="M44.6852 377.467L52.5036 360.391L59.9164 361.124L52.4647 377.399L44.6852 377.467Z" fill="#D35135" stroke="black" stroke-width="2.92245"/>
<path d="M73.7555 379.822L81.5739 362.746L88.9867 363.479L81.535 379.754L73.7555 379.822Z" fill="#D35135" stroke="black" stroke-width="2.92245"/>
<path d="M57.4082 394.281C58.4018 392.439 59.409 390.535 60.1132 389.196C60.4029 388.646 60.9896 388.352 61.5701 388.439C62.6511 388.602 64.0015 388.82 65.218 389.059C65.7747 389.169 66.2065 389.699 66.1501 390.399L65.7231 395.699C65.6579 396.508 64.9454 397.109 64.1368 397.036L58.5942 396.539C57.5373 396.444 56.8828 395.255 57.4082 394.281Z" fill="#D35135" stroke="black" stroke-width="2.92245" stroke-linecap="round" stroke-linejoin="round"/>
<rect x="30.5348" y="358.973" width="70.5888" height="38.503" fill="#D35135" stroke="black" stroke-width="1.06953"/>
<rect x="40.7664" y="366.972" width="49.952" height="21.774" fill="#CE5CF6" stroke="black" stroke-width="1.28082"/>
<path d="M45.6247 353.091L30 358.438H101.658L86.5723 353.091H45.6247Z" fill="#D35135" stroke="black" stroke-width="1.06953"/>
<path d="M61.4071 346.936C59.02 375.991 47.2546 361.741 49.2204 380H81.4563C84.6013 365.195 72.9975 370.624 74.7733 355.819C76.038 345.275 76.6662 115.506 74.0389 1H61.0336C62.3473 92.506 63.7307 318.654 61.4071 346.936Z" fill="#CE5CF6" stroke="black" stroke-width="0.778894"/>
<rect x="48.6934" y="379.573" width="33.4925" height="1.55779" fill="#CE5CF6"/>
<path d="M43.7286 431.088C43.7286 431.088 43.729 431.088 43.7298 431.087L43.7286 431.088ZM43.7818 431.057C43.8108 431.042 43.8531 431.021 43.9117 430.997C44.1478 430.899 44.5186 430.789 45.0489 430.681C46.1034 430.467 47.5875 430.3 49.4386 430.182C53.1284 429.946 58.0862 429.914 63.5643 430.013C74.5102 430.21 87.4039 430.927 96.0925 431.538L96.1945 430.082L96.0925 431.538C96.1837 431.545 96.236 431.555 96.2624 431.562C96.8274 432.032 97.9346 433.453 99.2018 436.552C100.469 439.65 101.841 444.289 102.993 450.999C104.478 459.647 99.8933 468.528 94.4352 475.333C91.7335 478.701 88.885 481.475 86.6247 483.348C85.4913 484.287 84.5312 484.978 83.8312 485.401C83.5406 485.577 83.3228 485.69 83.1747 485.755C83.1202 485.744 83.0718 485.735 83.0325 485.729C82.8624 485.701 82.6724 485.68 82.4759 485.663C82.0811 485.63 81.58 485.609 81.0003 485.595C79.8368 485.567 78.2754 485.57 76.446 485.589C74.2404 485.612 71.6126 485.659 68.781 485.711C66.9187 485.745 64.9683 485.78 62.992 485.811C57.9971 485.89 52.8178 485.941 48.384 485.869C43.9045 485.797 40.3209 485.6 38.4384 485.218C36.8102 484.887 35.2108 483.842 33.7042 482.17C32.2021 480.503 30.8678 478.293 29.7705 475.816C27.5658 470.838 26.4346 465.049 26.6774 460.994C26.789 459.132 27.6819 456.577 29.1365 453.611C30.5712 450.685 32.4739 447.514 34.4545 444.466C36.4324 441.422 38.4712 438.526 40.17 436.151C40.593 435.56 40.9982 434.996 41.3776 434.469C42.4393 432.992 43.2992 431.796 43.7818 431.057Z" fill="#E08F61" stroke="black" stroke-width="2.92245" stroke-linecap="round" stroke-linejoin="round"/>
<path d="M43.8408 460.354L51.616 443.258L59.0306 443.972L51.6201 460.266L43.8408 460.354Z" fill="#D35135" stroke="black" stroke-width="2.92245"/>
<path d="M72.916 462.635L80.6912 445.539L88.1058 446.253L80.6953 462.547L72.916 462.635Z" fill="#D35135" stroke="black" stroke-width="2.92245"/>
<path d="M56.6053 477.134C57.5942 475.29 58.5966 473.384 59.2974 472.043C59.5857 471.492 60.1716 471.197 60.7524 471.283C61.8338 471.443 63.1848 471.657 64.4018 471.893C64.9588 472.001 65.3919 472.53 65.3373 473.231L64.9238 478.531C64.8606 479.341 64.1496 479.944 63.3408 479.873L57.7969 479.39C56.7399 479.297 56.0823 478.11 56.6053 477.134Z" fill="#D35135" stroke="black" stroke-width="2.92245" stroke-linecap="round" stroke-linejoin="round"/>
</svg>
