<svg width="180" height="739" viewBox="0 0 180 739" fill="none" xmlns="http://www.w3.org/2000/svg">
<rect x="1.25" y="401.25" width="177.5" height="336.5" fill="#257A66" stroke="black" stroke-width="2.5"/>
<path d="M60.0112 478.505C60.0112 478.505 60.0118 478.505 60.0132 478.504C60.0119 478.505 60.0112 478.505 60.0112 478.505ZM60.0843 478.463C60.1241 478.443 60.1819 478.415 60.262 478.382C60.5854 478.248 61.0933 478.099 61.8195 477.954C63.2635 477.664 65.2955 477.441 67.8295 477.286C72.8805 476.976 79.6665 476.949 87.1641 477.103C102.145 477.411 119.791 478.437 131.681 479.303C131.805 479.312 131.877 479.326 131.913 479.336C132.685 479.981 134.195 481.928 135.919 486.172C137.642 490.415 139.504 496.766 141.058 505.949C143.06 517.783 136.755 529.917 129.261 539.207C125.552 543.805 121.643 547.589 118.543 550.143C116.989 551.424 115.672 552.366 114.713 552.943C114.314 553.182 114.016 553.336 113.813 553.424C113.738 553.408 113.672 553.397 113.618 553.388C113.386 553.349 113.126 553.319 112.857 553.296C112.317 553.25 111.631 553.219 110.837 553.198C109.245 553.156 107.108 553.154 104.604 553.173C101.585 553.197 97.9879 553.253 94.112 553.314C91.5631 553.354 88.8935 553.396 86.1885 553.431C79.3517 553.522 72.2626 553.573 66.1942 553.46C60.0633 553.345 55.1591 553.064 52.5839 552.534C50.3563 552.076 48.1707 550.641 46.1143 548.349C44.0642 546.063 42.2456 543.036 40.7523 539.643C37.752 532.825 36.2237 524.902 36.5701 519.357C36.7292 516.81 37.9602 513.317 39.9614 509.265C41.9351 505.268 44.5503 500.937 47.2717 496.774C49.9894 492.617 52.7899 488.662 55.1233 485.419C55.7043 484.612 56.2609 483.842 56.7821 483.122C58.2401 481.106 59.4211 479.473 60.0843 478.463Z" fill="#E08F61" stroke="black" stroke-width="4" stroke-linecap="round" stroke-linejoin="round"/>
<path d="M61.1642 517.168L71.8647 493.809L82.0103 494.811L71.8117 517.074L61.1642 517.168Z" fill="#D35135" stroke="black" stroke-width="4"/>
<path d="M100.951 520.389L111.651 497.031L121.797 498.033L111.598 520.296L100.951 520.389Z" fill="#D35135" stroke="black" stroke-width="4"/>
<path d="M78.5778 540.167C79.9371 537.649 81.315 535.045 82.2786 533.215C82.6753 532.461 83.4787 532.059 84.2734 532.179C85.753 532.401 87.6011 532.699 89.2658 533.026C90.0279 533.176 90.6187 533.902 90.5415 534.86L89.9574 542.106C89.8681 543.214 88.8924 544.037 87.7852 543.937L80.2007 543.257C78.754 543.127 77.8584 541.5 78.5778 540.167Z" fill="#D35135" stroke="black" stroke-width="4" stroke-linecap="round" stroke-linejoin="round"/>
<path d="M59.8517 590.521C59.8517 590.521 59.8523 590.521 59.8537 590.52C59.8524 590.521 59.8518 590.521 59.8517 590.521ZM59.9247 590.479C59.9644 590.458 60.0222 590.43 60.1022 590.397C60.4253 590.263 60.9328 590.112 61.6586 589.965C63.1019 589.672 65.1333 589.443 67.6669 589.282C72.7171 588.959 79.503 588.915 87.001 589.05C101.983 589.32 119.631 590.301 131.523 591.137C131.648 591.146 131.719 591.16 131.756 591.17C132.529 591.813 134.044 593.756 135.779 597.996C137.513 602.234 139.391 608.58 140.968 617.759C143 629.589 136.725 641.738 129.255 651.047C125.557 655.654 121.658 659.449 118.565 662.01C117.014 663.295 115.699 664.241 114.741 664.82C114.344 665.06 114.046 665.214 113.843 665.303C113.768 665.288 113.702 665.276 113.648 665.267C113.416 665.229 113.156 665.2 112.887 665.178C112.346 665.133 111.66 665.103 110.867 665.085C109.274 665.047 107.137 665.05 104.633 665.076C101.614 665.107 98.0175 665.173 94.1418 665.243C91.5929 665.29 88.9235 665.338 86.2186 665.381C79.382 665.488 72.2931 665.557 66.2244 665.46C60.0933 665.361 55.1884 665.092 52.6118 664.569C50.3831 664.116 48.1938 662.687 46.1316 660.399C44.0758 658.119 42.2495 655.096 40.7476 651.707C37.7301 644.897 36.1817 636.978 36.5141 631.432C36.6668 628.885 37.8889 625.389 39.8798 621.332C41.8434 617.33 44.4477 612.992 47.1585 608.822C49.8656 604.658 52.6561 600.696 54.9813 597.447C55.5603 596.638 56.1149 595.867 56.6343 595.146C58.0872 593.126 59.2641 591.49 59.9247 590.479Z" fill="#E08F61" stroke="black" stroke-width="4" stroke-linecap="round" stroke-linejoin="round"/>
<path d="M60.0066 630.555L70.6479 607.169L80.796 608.146L70.6539 630.435L60.0066 630.555Z" fill="#D35135" stroke="black" stroke-width="4"/>
<path d="M99.8011 633.676L110.442 610.29L120.59 611.267L110.448 633.555L99.8011 633.676Z" fill="#D35135" stroke="black" stroke-width="4"/>
<path d="M77.478 653.51C78.831 650.989 80.2022 648.382 81.1612 646.548C81.556 645.794 82.3584 645.39 83.1534 645.507C84.6335 645.726 86.4824 646.02 88.1479 646.342C88.9104 646.49 89.503 647.214 89.4282 648.173L88.8625 655.42C88.7759 656.529 87.8023 657.354 86.6949 657.257L79.1087 656.596C77.6617 656.47 76.762 654.845 77.478 653.51Z" fill="#D35135" stroke="black" stroke-width="4" stroke-linecap="round" stroke-linejoin="round"/>
<path d="M131.536 341.316C133.14 370.227 123.182 366.413 117 372.436L131.536 389C140.057 385.988 147.075 372.436 148.578 362.397C150.187 351.659 146.908 117.618 143.566 1H127.025C128.696 94.1936 129.932 312.404 131.536 341.316Z" fill="#CE5CF6" stroke="black"/>
<path d="M102.715 393.026V370.128L113.346 366.841L144.161 372.231V395.75L136.991 399.888L102.715 393.026Z" fill="#D35135" stroke="black" stroke-width="1.67727"/>
<path d="M86.8849 394.227L80.3143 369.004L86.2778 365.892L138.281 379.162V409.937L131.685 414.514L86.8849 394.227Z" fill="#D35135" stroke="black" stroke-width="1.67727"/>
<path d="M130.93 414.289L82.4008 397.151L80.7322 370.484L130.93 382.224V414.289Z" fill="#CE5CF6" stroke="black" stroke-width="1.67727"/>
<path d="M123.579 407.036L99.7747 434.309V403.691L123.579 387.184V407.036Z" fill="#D35135" stroke="black" stroke-width="1.67727"/>
<path d="M121.436 385.678L98.8965 401.784L53.6439 383.671L82.1453 376.643L121.436 385.678Z" fill="#D35135" stroke="black" stroke-width="1.67727"/>
<path d="M38.5198 420.743V387.254L47.3322 383.066L97.6073 403.042V438.251L85.8015 443.463L38.5198 420.743Z" fill="#D35135" stroke="black" stroke-width="1.67727"/>
<path d="M84.8663 443.182L38.5198 426.044V390.603V388.317L84.8663 407.903V443.182Z" fill="#CE5CF6" stroke="black" stroke-width="1.67727"/>
<path d="M50.6435 419L28.429 439.324V422.117L50.8609 407.477L50.6435 419Z" fill="#257A66" stroke="black" stroke-width="1.67727"/>
<path d="M48.4262 406.748L27.2145 420.739L23.9544 419.652L44.6008 406.748H48.4262Z" fill="#E08F61" stroke="black" stroke-width="1.67727"/>
<path d="M26.4973 440.515L22.8386 439.993V421.25L26.4973 422.296V440.515Z" fill="#E08F61" stroke="black" stroke-width="1.67727"/>
<mask id="path-21-inside-1" fill="white">
<ellipse cx="32.4176" cy="428.015" rx="1.52456" ry="3.04913" transform="rotate(0.202866 32.4176 428.015)"/>
</mask>
<path d="M32.2649 428.015C32.2626 428.653 32.128 429.147 31.9904 429.42C31.9219 429.556 31.8841 429.575 31.9223 429.543C31.9714 429.501 32.1421 429.386 32.4127 429.387L32.4008 432.742C33.7994 432.747 34.6179 431.66 34.9855 430.931C35.4036 430.102 35.6157 429.073 35.6194 428.027L32.2649 428.015ZM32.4127 429.387C32.6833 429.388 32.8532 429.505 32.902 429.546C32.9399 429.578 32.9023 429.559 32.8348 429.423C32.6991 429.149 32.568 428.654 32.5703 428.016L29.2158 428.004C29.2121 429.05 29.4168 430.081 29.8291 430.912C30.1915 431.644 31.0023 432.737 32.4008 432.742L32.4127 429.387ZM32.5703 428.016C32.5725 427.378 32.7072 426.884 32.8447 426.611C32.9132 426.475 32.951 426.456 32.9128 426.488C32.8637 426.529 32.6931 426.645 32.4224 426.644L32.4343 423.289C31.0358 423.284 30.2173 424.371 29.8496 425.1C29.4315 425.929 29.2195 426.958 29.2158 428.004L32.5703 428.016ZM32.4224 426.644C32.1518 426.643 31.982 426.526 31.9332 426.485C31.8952 426.452 31.9328 426.472 32.0004 426.608C32.136 426.882 32.2671 427.377 32.2649 428.015L35.6194 428.027C35.6231 426.981 35.4183 425.95 35.0061 425.118C34.6436 424.387 33.8328 423.294 32.4343 423.289L32.4224 426.644Z" fill="black" mask="url(#path-21-inside-1)"/>
<path d="M72.9968 431.995L46.8762 458.976V445.511L72.9968 418.647V431.995Z" fill="#257A66" stroke="black" stroke-width="1.67727"/>
<path d="M71.7129 417.243L45.4127 444.091L41.6381 441.615L67.7695 416.704L71.7129 417.243Z" fill="#E08F61" stroke="black" stroke-width="1.67727"/>
<path d="M44.6906 459.484L41.1336 457.278V443.742L44.6906 445.923V459.484Z" fill="#E08F61" stroke="black" stroke-width="1.67727"/>
<mask id="path-26-inside-2" fill="white">
<ellipse rx="1.67602" ry="3.10154" transform="matrix(0.998844 0.0480626 -0.0479871 0.998848 49.4862 448.981)"/>
</mask>
<path d="M49.4849 448.98C49.4545 449.613 49.2888 450.096 49.1291 450.361C49.0503 450.491 49.0049 450.516 49.0315 450.497C49.0692 450.471 49.207 450.393 49.4178 450.403L49.2569 453.754C50.6277 453.82 51.5396 452.858 52.0003 452.095C52.5004 451.268 52.7838 450.22 52.8356 449.142L49.4849 448.98ZM49.4178 450.403C49.6287 450.413 49.7584 450.504 49.7934 450.534C49.8181 450.555 49.7753 450.526 49.7094 450.389C49.5757 450.11 49.457 449.613 49.4874 448.981L46.1368 448.819C46.085 449.898 46.2666 450.968 46.685 451.84C47.0705 452.643 47.886 453.688 49.2569 453.754L49.4178 450.403ZM49.4874 448.981C49.5178 448.348 49.6836 447.865 49.8433 447.6C49.9221 447.47 49.9675 447.445 49.9409 447.464C49.9032 447.49 49.7654 447.568 49.5545 447.558L49.7155 444.207C48.3447 444.141 47.4327 445.103 46.972 445.866C46.472 446.693 46.1886 447.741 46.1368 448.819L49.4874 448.981ZM49.5545 447.558C49.3437 447.548 49.214 447.457 49.179 447.427C49.1543 447.406 49.1971 447.435 49.263 447.572C49.3967 447.851 49.5153 448.348 49.4849 448.98L52.8356 449.142C52.8874 448.064 52.7057 446.993 52.2873 446.121C51.9019 445.318 51.0863 444.273 49.7155 444.207L49.5545 447.558Z" fill="black" mask="url(#path-26-inside-2)"/>
</svg>
